<?xml version="1.0" encoding="utf-8"?>
<!-- Generator: Adobe Illustrator 23.0.0, SVG Export Plug-In . SVG Version: 6.00 Build 0)  -->
<svg version="1.1" id="Capa_1" xmlns="http://www.w3.org/2000/svg" xmlns:xlink="http://www.w3.org/1999/xlink" x="0px" y="0px"
	 viewBox="0 0 150 150" style="enable-background:new 0 0 150 150;" xml:space="preserve">
<style type="text/css">
	.st0{fill:#FFFFFF;}
	.st1{clip-path:url(#SVGID_3_);fill:#FFFFFF;}
</style>
<g>
	<g>
		<g>
			<path id="SVGID_1_" class="st0" d="M35.2,109.2h-10L2.6,40.8h13.8l13.7,44.6l13.7-44.6h13.9L35.2,109.2z"/>
		</g>
		<g>
			<g>
				<defs>
					<polygon id="SVGID_2_" points="35.2,109.2 25.2,109.2 2.6,40.8 16.5,40.8 30.2,85.4 43.9,40.8 57.9,40.8 					"/>
				</defs>
				<clipPath id="SVGID_3_">
					<use xlink:href="#SVGID_2_"  style="overflow:visible;"/>
				</clipPath>
				<rect x="2.1" y="36.1" class="st1" width="56.2" height="73.1"/>
			</g>
		</g>
	</g>
	<path class="st0" d="M63.5,56.8v-16h1.2v14.9h8.5v1.1C73.2,56.8,63.5,56.8,63.5,56.8z"/>
	<path class="st0" d="M86.1,56.8l-1.4-3.9h-7.5l-1.4,3.9h-1.3l5.9-16h1.1l5.9,16H86.1z M81,42.4l-3.3,9.4h6.7L81,42.4z"/>
	<path class="st0" d="M68.7,77.9h-1l-5.3-16h1.3l4.5,13.9l4.5-13.9H74L68.7,77.9z"/>
	<path class="st0" d="M76.4,77.9v-16h1.2v16H76.4z"/>
	<path class="st0" d="M85.9,78.1c-1.5,0-2.9-0.6-4-1.6c-1.5-1.5-1.5-2.9-1.5-6.5s0-5,1.5-6.5c1.1-1.1,2.5-1.6,4-1.6
		c2.9,0,4.9,1.8,5.4,4.7h-1.2c-0.5-2.2-2-3.6-4.2-3.6c-1.1,0-2.2,0.4-3,1.2c-1.1,1.1-1.2,2.4-1.2,5.8s0.1,4.7,1.2,5.8
		c0.8,0.8,1.9,1.2,3,1.2c2.2,0,3.8-1.4,4.3-3.6h1.2C90.8,76.3,88.7,78.1,85.9,78.1z"/>
	<path class="st0" d="M98.3,63v14.9h-1.2V63h-4.8v-1.1h10.8V63H98.3z"/>
	<path class="st0" d="M113.8,76.4c-1.1,1.1-2.5,1.6-4,1.6s-2.9-0.6-4-1.6c-1.5-1.5-1.5-2.9-1.5-6.5s0-5,1.5-6.5
		c1.1-1.1,2.5-1.6,4-1.6s2.9,0.6,4,1.6c1.5,1.5,1.5,2.9,1.5,6.5S115.2,75,113.8,76.4z M112.8,64.1c-0.8-0.8-1.9-1.2-3-1.2
		s-2.2,0.4-3,1.2c-1.1,1.1-1.2,2.4-1.2,5.8s0.1,4.7,1.2,5.8c0.8,0.8,1.9,1.2,3,1.2s2.2-0.4,3-1.2c1.1-1.1,1.2-2.4,1.2-5.8
		S114,65.3,112.8,64.1z"/>
	<path class="st0" d="M126.9,77.9l-3.8-7.4h-4.4v7.4h-1.2v-16h6.1c2.6,0,4.6,1.5,4.6,4.3c0,2.4-1.4,3.9-3.7,4.3l3.9,7.4
		C128.4,77.9,126.9,77.9,126.9,77.9z M123.4,63h-4.7v6.5h4.7c2,0,3.5-1,3.5-3.2C126.9,64,125.4,63,123.4,63z"/>
	<path class="st0" d="M131.3,77.9v-16h1.2v16H131.3z"/>
	<path class="st0" d="M146,77.9l-1.4-3.9h-7.5l-1.4,3.9h-1.3l5.9-16h1.1l5.9,16H146z M140.9,63.5l-3.4,9.4h6.7L140.9,63.5z"/>
	<path class="st0" d="M63.6,99.1v-16H66v13.8h7.7v2.2H63.6L63.6,99.1z"/>
	<path class="st0" d="M86,99.1l-1.1-3.2h-6.3l-1.1,3.2h-2.6l5.9-16h2l5.9,16H86z M81.8,86.7l-2.5,7.1h4.9L81.8,86.7z"/>
	<path class="st0" d="M96.4,99.1h-6.5v-16h6.2c3,0,4.8,1.7,4.8,4.4c0,1.7-1.1,3-2.2,3.4c1.2,0.5,2.4,1.7,2.4,3.7
		C101.2,97.5,99.2,99.1,96.4,99.1z M96,85.3h-3.6v4.6H96c1.5,0,2.6-0.8,2.6-2.3S97.5,85.3,96,85.3z M96.2,92h-3.8v4.9h3.8
		c1.7,0,2.6-1,2.6-2.5C98.8,93,97.9,92,96.2,92z"/>
	<rect x="63.7" y="107" class="st0" width="83.7" height="2.2"/>
</g>
</svg>
